HIERARCHY
ROOT hip
{
	OFFSET 0.000000 0.000000 0.000000
	CHANNELS 6 Xposition Yposition Zposition Zrotation Yrotation Xrotation 
	JOINT lhipjoint
	{
		OFFSET 0.000000 0.000000 0.000000
		CHANNELS 3 Zrotation Yrotation Xrotation
		JOINT lfemur
		{
			OFFSET 1.363060 -1.794630 0.839290
			CHANNELS 3 Zrotation Yrotation Xrotation
			JOINT ltibia
			{
				OFFSET 2.448110 -6.726130 0.000000
				CHANNELS 3 Zrotation Yrotation Xrotation
				JOINT lfoot
				{
					OFFSET 2.562200 -7.039590 0.000000
					CHANNELS 3 Zrotation Yrotation Xrotation
					JOINT ltoes
					{
						OFFSET 0.157640 -0.433110 2.322550
						CHANNELS 3 Zrotation Yrotation Xrotation
						End Site
						{
							OFFSET 0.000000 0.000000 0.000000
						}
					}
				}
			}
		}
	}
	JOINT rhipjoint
	{
		OFFSET 0.000000 0.000000 0.000000
		CHANNELS 3 Zrotation Yrotation Xrotation
		JOINT rfemur
		{
			OFFSET -1.305520 -1.794630 0.839290
			CHANNELS 3 Zrotation Yrotation Xrotation
			JOINT rtibia
			{
				OFFSET -2.542530 -6.985550 0.000000
				CHANNELS 3 Zrotation Yrotation Xrotation
				JOINT rfoot
				{
					OFFSET -2.568260 -7.056230 0.000000
					CHANNELS 3 Zrotation Yrotation Xrotation
					JOINT rtoes
					{
						OFFSET -0.164730 -0.452590 2.363150
						CHANNELS 3 Zrotation Yrotation Xrotation
						End Site
						{
							OFFSET 0.000000 0.000000 0.000000
						}
					}
				}
			}
		}
	}
	JOINT lowerback
	{
		OFFSET 0.000000 0.000000 0.000000
		CHANNELS 3 Zrotation Yrotation Xrotation
		JOINT upperback
		{
			OFFSET 0.028270 2.035590 -0.193380
			CHANNELS 3 Zrotation Yrotation Xrotation
			JOINT thorax
			{
				OFFSET 0.056720 2.048850 -0.042750
				CHANNELS 3 Zrotation Yrotation Xrotation
				JOINT lowerneck
				{
					OFFSET 0.000000 0.000000 0.000000
					CHANNELS 3 Zrotation Yrotation Xrotation
					JOINT upperneck
					{
						OFFSET -0.054170 1.746240 0.172020
						CHANNELS 3 Zrotation Yrotation Xrotation
						JOINT head
						{
							OFFSET 0.104070 1.761360 -0.123970
							CHANNELS 3 Zrotation Yrotation Xrotation
							End Site
							{
								OFFSET 0.000000 0.000000 0.000000
							}
						}
					}
				}
				JOINT lclavicle
				{
					OFFSET 0.000000 0.000000 0.000000
					CHANNELS 3 Zrotation Yrotation Xrotation
					JOINT lhumerus
					{
						OFFSET 3.362410 1.200890 -0.311210
						CHANNELS 3 Zrotation Yrotation Xrotation
						JOINT lradius
						{
							OFFSET 4.983000 -0.000000 -0.000000
							CHANNELS 3 Zrotation Yrotation Xrotation
							JOINT lwrist
							{
								OFFSET 3.483560 -0.000000 -0.000000
								CHANNELS 3 Zrotation Yrotation Xrotation
								JOINT lhand
								{
									OFFSET 0.000000 0.000000 0.000000
									CHANNELS 3 Zrotation Yrotation Xrotation
									JOINT lfingers
									{
										OFFSET 0.715260 -0.000000 -0.000000
										CHANNELS 3 Zrotation Yrotation Xrotation
										End Site
										{
											OFFSET 0.000000 0.000000 0.000000
										}
									}
								}
								JOINT lthumb
								{
									OFFSET 0.000000 0.000000 0.000000
									CHANNELS 3 Zrotation Yrotation Xrotation
									End Site
									{
										OFFSET 0.000000 0.000000 0.000000
									}
								}
							}
						}
					}
				}
				JOINT rclavicle
				{
					OFFSET 0.000000 0.000000 0.000000
					CHANNELS 3 Zrotation Yrotation Xrotation
					JOINT rhumerus
					{
						OFFSET -3.136600 1.374050 -0.404650
						CHANNELS 3 Zrotation Yrotation Xrotation
						JOINT rradius
						{
							OFFSET -5.241900 -0.000000 -0.000000
							CHANNELS 3 Zrotation Yrotation Xrotation
							JOINT rwrist
							{
								OFFSET -3.444170 -0.000000 -0.000000
								CHANNELS 3 Zrotation Yrotation Xrotation
								JOINT rhand
								{
									OFFSET 0.000000 0.000000 0.000000
									CHANNELS 3 Zrotation Yrotation Xrotation
									JOINT rfingers
									{
										OFFSET -0.622530 -0.000000 -0.000000
										CHANNELS 3 Zrotation Yrotation Xrotation
										End Site
										{
											OFFSET 0.000000 0.000000 0.000000
										}
									}
								}
								JOINT rthumb
								{
									OFFSET 0.000000 0.000000 0.000000
									CHANNELS 3 Zrotation Yrotation Xrotation
									End Site
									{
										OFFSET 0.000000 0.000000 0.000000
									}
								}
							}
						}
					}
				}
			}
		}
	}
}
MOTION
Frames: 9
Frame Time: 0.008333
2.140022 16.708117 2.842852 178.936965 0.554542 -175.424358 -4.731779 -2.397759 -1.573843 -15.383974 -6.165710 -24.369386 6.677771 13.933506 44.074173 0.867900 -3.168796 -16.465364 0.006100 -0.505100 -1.388000 3.103133 2.182530 -1.716396 18.561179 -6.855285 -27.021314 -7.389655 -14.325441 44.146203 1.789794 30.079622 -0.259353 -0.000900 0.195100 -0.536100 12.889311 -0.774447 15.903669 0.986525 3.435243 -1.523044 -7.916320 3.881623 11.848017 -0.097925 9.887112 -7.646446 -11.681789 17.031685 9.704397 -5.905500 8.313800 3.070500 -5.868584 -2.053556 3.392683 -74.472701 7.673592 39.015997 29.771891 -42.710064 -11.751562 0.305787 1.734907 22.236759 43.757770 -18.324974 -18.850300 -7.125000 0.000000 0.000000 9.623100 2.689200 -9.294900 8.069879 4.425333 4.865369 69.477082 -4.741131 13.660295 -41.948022 53.129043 -17.734349 -0.072998 -2.382645 -6.652628 -12.297698 11.630892 -2.949600 7.125000 0.000000 0.000000 10.552900 -15.778000 7.414300 
2.149876 16.706415 2.841509 179.196432 0.190330 -175.477060 -4.734580 -2.387113 -1.588054 -15.057437 -7.047364 -23.976137 6.682800 13.930392 44.087394 0.880598 -2.741412 -16.810321 0.006800 -0.530900 -1.458700 3.077428 2.185448 -1.735423 18.923250 -7.241531 -27.011765 -7.356632 -14.311619 44.018254 1.814585 30.215761 -0.194762 -0.003200 0.363400 -0.998400 13.008823 -0.761724 15.922917 1.010496 3.501139 -1.512436 -7.803070 3.923252 11.878313 -0.171225 9.855980 -7.602227 -11.596671 16.943310 9.617071 -5.884000 8.277000 2.993200 -5.853574 -2.072405 3.402664 -74.529826 7.566343 39.267454 30.040403 -42.919408 -11.890441 0.309895 1.741985 22.080961 43.604607 -18.402623 -18.823400 -7.125000 0.000000 0.000000 9.509400 2.637500 -9.190900 8.085523 4.416720 4.858303 69.284575 -5.011397 13.224107 -41.076715 52.675430 -17.260838 -0.067135 -2.365561 -6.515234 -12.491044 11.628738 -2.998500 7.125000 0.000000 0.000000 10.412800 -15.780300 7.311900 
2.158654 16.705609 2.841598 179.364599 -0.190815 -175.509685 -4.755048 -2.386248 -1.629511 -14.787230 -8.029137 -23.603295 6.703395 13.942837 44.166676 0.879440 -2.338424 -16.996812 0.009300 -0.621200 -1.707100 3.031870 2.194807 -1.783053 19.209344 -7.580714 -26.987852 -7.321861 -14.302242 43.896408 1.816048 30.274962 -0.278817 -0.006800 0.533600 -1.466200 13.795614 2.799883 15.995494 1.334439 2.673623 -1.523286 -7.742385 1.267578 12.181748 -0.272526 9.801115 -7.583905 -11.543014 16.825158 9.536009 -5.858100 8.224400 2.915400 -5.888172 -2.081220 3.396219 -74.594384 7.430736 39.487426 30.315625 -43.119435 -12.030867 0.315374 1.747247 21.995384 43.458592 -18.500325 -18.815100 -7.125000 0.000000 0.000000 9.395800 2.561100 -9.091200 8.060486 4.425045 4.844015 69.073915 -5.288899 12.795650 -40.240242 52.227962 -16.813815 -0.057621 -2.350789 -6.372975 -12.689583 11.556286 -3.035100 7.125000 0.000000 0.000000 10.267500 -15.850200 7.190700 
2.165910 16.704892 2.841956 179.483883 -0.596562 -175.581454 -4.762974 -2.368890 -1.647181 -14.581757 -9.070178 -23.236732 6.742979 13.962355 44.314489 0.869071 -2.012160 -17.043787 0.018700 -0.882800 -2.426300 3.019541 2.202238 -1.799166 19.404503 -7.930408 -26.964550 -7.286855 -14.295802 43.787975 1.809960 30.311942 -0.451182 -0.013600 0.753000 -2.069500 13.866810 2.828301 16.049012 1.350493 2.733686 -1.514519 -7.645006 1.294268 12.188973 -0.381757 9.758402 -7.533771 -11.451979 16.712460 9.439617 -5.827600 8.175200 2.824900 -5.878961 -2.106685 3.408483 -74.646570 7.290028 39.638606 30.611658 -43.350929 -12.198004 0.322024 1.752395 22.027258 43.522778 -18.668168 -18.997400 -7.125000 0.000000 0.000000 9.391300 2.316300 -9.129000 8.074139 4.413019 4.836084 68.840250 -5.575461 12.434003 -39.459010 51.798634 -16.398218 -0.047088 -2.335289 -6.265866 -12.918899 11.466783 -3.074900 7.125000 0.000000 0.000000 10.101500 -15.935500 7.051700 
2.172091 16.706146 2.842673 179.521339 -0.994225 -175.634022 -4.774131 -2.345065 -1.664166 -14.450972 -10.134075 -22.955009 6.807422 13.996722 44.558503 0.845285 -1.772634 -16.893496 0.023600 -0.992100 -2.727000 3.018131 2.207672 -1.808094 19.500546 -8.228221 -26.962593 -7.255162 -14.291827 43.699332 1.787796 30.287721 -0.719676 -0.022400 0.966400 -2.656500 13.892267 2.875733 16.104970 1.354871 2.823657 -1.510137 -7.568126 1.336295 12.178511 -0.490996 9.705453 -7.508800 -11.338811 16.587938 9.377833 -5.784400 8.119900 2.748600 -5.870257 -2.134466 3.419599 -74.680361 7.089222 39.753051 30.880387 -43.559390 -12.353930 0.331308 1.755830 22.117046 43.639771 -18.905232 -19.268100 -7.125000 0.000000 0.000000 9.400900 1.966800 -9.198700 8.080316 4.402633 4.825439 68.664210 -5.870520 12.029417 -38.731937 51.385313 -16.013274 -0.031926 -2.320646 -6.170367 -13.085954 11.313475 -3.085500 7.125000 0.000000 0.000000 9.975800 -16.088900 6.927500 
2.175316 16.710357 2.843927 179.502445 -1.385631 -175.666604 -4.789975 -2.316567 -1.679668 -14.372509 -11.171412 -22.779888 6.899241 14.049512 44.912052 0.811249 -1.613820 -16.577077 0.019700 -0.906500 -2.491500 3.023671 2.212736 -1.813531 19.522942 -8.505249 -26.980132 -7.223605 -14.288230 43.617262 1.754986 30.224039 -1.063531 -0.034200 1.193700 -3.281900 13.896855 2.918197 16.142745 1.356756 2.904809 -1.506696 -7.487991 1.373659 12.169639 -0.624682 9.656976 -7.488672 -11.252099 16.473316 9.304528 -5.743900 8.066600 2.671800 -5.864342 -2.163017 3.429092 -74.771446 6.900789 39.752468 31.204109 -43.800773 -12.540716 0.342872 1.761733 22.277652 43.613988 -19.049162 -19.374600 -7.125000 0.000000 0.000000 9.348100 1.784700 -9.176500 8.089346 4.391342 4.815534 68.416313 -6.175539 11.743285 -38.065584 51.000730 -15.664357 -0.016716 -2.304719 -6.138132 -13.263010 11.141096 -3.092200 7.125000 0.000000 0.000000 9.844900 -16.262600 6.796200 
2.175495 16.714567 2.845719 179.447639 -1.757482 -175.735128 -4.806870 -2.292334 -1.692401 -14.345888 -12.089708 -22.695501 7.025032 14.129898 45.404968 0.765075 -1.425624 -16.128289 0.021700 -0.951300 -2.614800 3.032596 2.225591 -1.824786 19.478380 -8.796874 -26.947743 -7.188167 -14.292721 43.537574 1.716622 30.111705 -1.387559 -0.042800 1.335300 -3.672000 13.939798 2.976751 16.226518 1.349110 3.009628 -1.499859 -7.469193 1.430041 12.168880 -0.738994 9.591673 -7.516344 -11.150428 16.348859 9.294578 -5.689900 8.007800 2.625200 -5.864990 -2.185160 3.435930 -74.813943 6.666833 39.744720 31.565200 -44.059795 -12.748712 0.354825 1.767202 22.483419 43.523481 -19.135556 -19.392300 -7.125000 0.000000 0.000000 9.271400 1.700700 -9.113400 8.093373 4.381830 4.805334 68.187356 -6.468761 11.485832 -37.400308 50.614250 -15.315975 -0.000591 -2.291867 -6.185424 -13.448079 10.962017 -3.098100 7.125000 0.000000 0.000000 9.710000 -16.440000 6.662300 
2.172808 16.719852 2.848675 179.352835 -2.097364 -175.790562 -4.826404 -2.262270 -1.702161 -14.363156 -12.929747 -22.754916 7.187115 14.234292 46.040838 0.709726 -1.153675 -15.605178 0.031100 -1.137600 -3.127500 3.043035 2.230823 -1.829789 19.380648 -8.872410 -26.868130 -7.161219 -14.295345 43.474486 1.623378 29.759356 -1.815553 -0.043100 1.339900 -3.684600 13.980309 3.036712 16.322559 1.337888 3.120452 -1.496432 -7.454531 1.491068 12.149158 -0.908509 9.536377 -7.569209 -11.013443 16.236267 9.313168 -5.605800 7.953800 2.585600 -5.871813 -2.212885 3.440150 -74.869685 6.485569 39.674330 32.046507 -44.394592 -13.026052 0.365904 1.775994 22.715420 43.296031 -19.075802 -19.208800 -7.125000 0.000000 0.000000 9.149600 1.846300 -8.966300 8.097413 4.372120 4.794421 67.883521 -6.770246 11.382196 -36.764587 50.241604 -14.985979 0.020170 -2.282355 -6.532581 -13.680998 10.748697 -3.105300 7.125000 0.000000 0.000000 9.547500 -16.645700 6.504300 
2.168598 16.724420 2.853243 179.229966 -2.430000 -175.854240 -4.847707 -2.228678 -1.708014 -14.410995 -13.661438 -22.960351 7.390000 14.365409 46.834701 0.648166 -0.907672 -14.966936 0.055000 -1.513800 -4.163900 3.053769 2.232182 -1.832408 19.243209 -8.766846 -26.725586 -7.143350 -14.301482 43.436390 1.487801 29.194766 -2.291561 -0.033800 1.186400 -3.262000 14.032447 3.100480 16.450749 1.323067 3.245093 -1.495744 -7.460269 1.559996 12.101828 -1.037629 9.462255 -7.610828 -10.916165 16.106500 9.350945 -5.542100 7.890700 2.560400 -5.878395 -2.239389 3.441924 -74.913151 6.349626 39.556799 32.642447 -44.798430 -13.373140 0.373697 1.787642 22.968844 43.004270 -18.857418 -18.863900 -7.125000 0.000000 0.000000 9.028500 2.208700 -8.784800 8.105925 4.371547 4.783690 67.558459 -7.101511 11.335356 -36.197375 49.901067 -14.694795 0.044835 -2.271474 -7.001274 -13.858810 10.486483 -3.085600 7.125000 0.000000 0.000000 9.423600 -16.907100 6.363000 
